<svg width="35" height="37" viewBox="0 0 35 37" fill="none" xmlns="http://www.w3.org/2000/svg">
<g filter="url(#filter0_i)">
<path d="M11.7067 29.7923C11.7067 29.9454 11.5444 30.0678 11.3397 30.0678C11.1069 30.0907 10.9446 29.9683 10.9446 29.7923C10.9446 29.6393 11.1069 29.5169 11.3115 29.5169C11.5232 29.494 11.7067 29.6164 11.7067 29.7923ZM9.5121 29.4481C9.4627 29.6011 9.60383 29.777 9.81553 29.8229C9.99899 29.8995 10.2107 29.8229 10.253 29.6699C10.2954 29.5169 10.1613 29.3409 9.9496 29.2721C9.76613 29.2185 9.56149 29.295 9.5121 29.4481ZM12.631 29.318C12.4264 29.3716 12.2853 29.5169 12.3065 29.6929C12.3276 29.8459 12.5111 29.9454 12.7228 29.8918C12.9274 29.8383 13.0685 29.6929 13.0474 29.5399C13.0262 29.3945 12.8357 29.295 12.631 29.318ZM17.2742 0C7.48689 0 0 8.05633 0 18.668C0 27.1528 4.9254 34.4135 11.9607 36.9688C12.8639 37.1448 13.1815 36.5404 13.1815 36.0431C13.1815 35.5687 13.1603 32.9521 13.1603 31.3455C13.1603 31.3455 8.22077 32.4931 7.18347 29.0655C7.18347 29.0655 6.37903 26.8391 5.22177 26.2653C5.22177 26.2653 3.60585 25.0641 5.33468 25.0871C5.33468 25.0871 7.09173 25.2401 8.05847 27.061C9.60383 30.0142 12.1935 29.165 13.2026 28.66C13.3649 27.4359 13.8236 26.5866 14.3317 26.0817C10.3871 25.6073 6.40726 24.9876 6.40726 17.6275C6.40726 15.5235 6.94355 14.4677 8.07258 13.1212C7.88911 12.6239 7.28931 10.5735 8.25605 7.92626C9.73085 7.42896 13.125 9.99199 13.125 9.99199C14.5363 9.56354 16.0534 9.34167 17.5565 9.34167C19.0595 9.34167 20.5766 9.56354 21.9879 9.99199C21.9879 9.99199 25.3821 7.42131 26.8569 7.92626C27.8236 10.5811 27.2238 12.6239 27.0403 13.1212C28.1694 14.4754 28.8609 15.5312 28.8609 17.6275C28.8609 25.0106 24.7046 25.5997 20.7601 26.0817C21.4093 26.6861 21.9597 27.8337 21.9597 29.6317C21.9597 32.21 21.9385 35.4004 21.9385 36.0278C21.9385 36.5251 22.2631 37.1295 23.1593 36.9535C30.2157 34.4134 35 27.1528 35 18.668C35 8.05633 27.0615 0 17.2742 0ZM6.85887 26.3877C6.76714 26.4642 6.78831 26.6402 6.90827 26.7856C7.02117 26.908 7.18347 26.9615 7.2752 26.8621C7.36694 26.7856 7.34577 26.6096 7.22581 26.4642C7.1129 26.3418 6.9506 26.2883 6.85887 26.3877ZM6.09677 25.768C6.04738 25.8675 6.11794 25.9899 6.25907 26.0664C6.37198 26.1429 6.5131 26.1199 6.5625 26.0128C6.6119 25.9134 6.54133 25.791 6.4002 25.7145C6.25907 25.6685 6.14617 25.6915 6.09677 25.768ZM8.38306 28.4917C8.27016 28.5912 8.3125 28.8207 8.4748 28.9661C8.6371 29.142 8.84173 29.165 8.93347 29.0426C9.0252 28.9431 8.98286 28.7136 8.84173 28.5682C8.68649 28.3922 8.4748 28.3693 8.38306 28.4917ZM7.57863 27.367C7.46573 27.4435 7.46573 27.6425 7.57863 27.8184C7.69153 27.9944 7.88206 28.0709 7.97379 27.9944C8.08669 27.8949 8.08669 27.696 7.97379 27.5201C7.875 27.3441 7.69153 27.2676 7.57863 27.367Z" fill="#E2A52D"/>
</g>
<defs>
<filter id="filter0_i" x="0" y="0" width="35" height="41" filterUnits="userSpaceOnUse" color-interpolation-filters="sRGB">
<feFlood flood-opacity="0" result="BackgroundImageFix"/>
<feBlend mode="normal" in="SourceGraphic" in2="BackgroundImageFix" result="shape"/>
<feColorMatrix in="SourceAlpha" type="matrix" values="0 0 0 0 0 0 0 0 0 0 0 0 0 0 0 0 0 0 127 0" result="hardAlpha"/>
<feOffset dy="4"/>
<feGaussianBlur stdDeviation="2"/>
<feComposite in2="hardAlpha" operator="arithmetic" k2="-1" k3="1"/>
<feColorMatrix type="matrix" values="0 0 0 0 0 0 0 0 0 0 0 0 0 0 0 0 0 0 0.25 0"/>
<feBlend mode="normal" in2="shape" result="effect1_innerShadow"/>
</filter>
</defs>
</svg>
