<svg width="258" height="35" viewBox="0 0 258 35" fill="none" xmlns="http://www.w3.org/2000/svg">
<g filter="url(#filter0_i)">
<path d="M17.3804 1.872V19.98C17.3804 21.108 17.1764 22.14 16.7684 23.076C16.3844 23.988 15.8204 24.768 15.0764 25.416C14.3564 26.064 13.4804 26.568 12.4484 26.928C11.4164 27.264 10.2644 27.432 8.99238 27.432C6.42438 27.432 4.43238 26.796 3.01638 25.524C1.62438 24.228 0.736375 22.536 0.352375 20.448L5.46438 19.404C5.65638 20.484 6.01638 21.36 6.54438 22.032C7.09638 22.704 7.91238 23.04 8.99238 23.04C9.90438 23.04 10.6124 22.752 11.1164 22.176C11.6444 21.576 11.9084 20.664 11.9084 19.44V6.3H3.62838V1.872H17.3804ZM31.3703 27.432C29.9303 27.432 28.6343 27.216 27.4823 26.784C26.3303 26.328 25.3463 25.68 24.5303 24.84C23.7383 24 23.1263 22.98 22.6943 21.78C22.2623 20.58 22.0463 19.224 22.0463 17.712C22.0463 16.2 22.2623 14.844 22.6943 13.644C23.1263 12.444 23.7383 11.424 24.5303 10.584C25.3463 9.744 26.3303 9.108 27.4823 8.676C28.6343 8.22 29.9303 7.992 31.3703 7.992C32.8103 7.992 34.1063 8.22 35.2583 8.676C36.4103 9.108 37.3823 9.744 38.1743 10.584C38.9903 11.424 39.6143 12.444 40.0463 13.644C40.4783 14.844 40.6943 16.2 40.6943 17.712C40.6943 19.224 40.4783 20.58 40.0463 21.78C39.6143 22.98 38.9903 24 38.1743 24.84C37.3823 25.68 36.4103 26.328 35.2583 26.784C34.1063 27.216 32.8103 27.432 31.3703 27.432ZM31.3703 23.472C32.5703 23.472 33.5063 23.1 34.1783 22.356C34.8503 21.612 35.1863 20.556 35.1863 19.188V16.236C35.1863 14.868 34.8503 13.812 34.1783 13.068C33.5063 12.324 32.5703 11.952 31.3703 11.952C30.1703 11.952 29.2343 12.324 28.5623 13.068C27.8903 13.812 27.5543 14.868 27.5543 16.236V19.188C27.5543 20.556 27.8903 21.612 28.5623 22.356C29.2343 23.1 30.1703 23.472 31.3703 23.472ZM44.4963 0.36H49.8243V11.808H50.0403C50.2563 11.28 50.5203 10.788 50.8323 10.332C51.1443 9.876 51.5163 9.48 51.9483 9.144C52.4043 8.784 52.9203 8.508 53.4963 8.316C54.0963 8.1 54.7683 7.992 55.5123 7.992C56.4003 7.992 57.2163 8.148 57.9603 8.46C58.7043 8.748 59.3403 9.192 59.8683 9.792C60.3963 10.392 60.8043 11.124 61.0923 11.988C61.4043 12.852 61.5603 13.848 61.5603 14.976V27H56.2323V15.696C56.2323 13.296 55.1883 12.096 53.1003 12.096C52.6923 12.096 52.2843 12.156 51.8763 12.276C51.4923 12.372 51.1443 12.54 50.8323 12.78C50.5203 12.996 50.2683 13.272 50.0763 13.608C49.9083 13.944 49.8243 14.34 49.8243 14.796V27H44.4963V0.36ZM66.0822 27V8.424H71.4102V11.808H71.6262C71.8422 11.28 72.1062 10.788 72.4182 10.332C72.7302 9.876 73.1022 9.48 73.5342 9.144C73.9902 8.784 74.5062 8.508 75.0822 8.316C75.6822 8.1 76.3542 7.992 77.0982 7.992C77.9862 7.992 78.8022 8.148 79.5462 8.46C80.2902 8.748 80.9262 9.192 81.4542 9.792C81.9822 10.392 82.3902 11.124 82.6782 11.988C82.9902 12.852 83.1462 13.848 83.1462 14.976V27H77.8182V15.696C77.8182 13.296 76.7742 12.096 74.6862 12.096C74.2782 12.096 73.8702 12.156 73.4622 12.276C73.0782 12.372 72.7302 12.54 72.4182 12.78C72.1062 12.996 71.8542 13.272 71.6622 13.608C71.4942 13.944 71.4102 14.34 71.4102 14.796V27H66.0822ZM109.218 1.872H117.318C120.702 1.872 123.21 2.952 124.842 5.112C126.474 7.272 127.29 10.38 127.29 14.436C127.29 18.492 126.474 21.6 124.842 23.76C123.21 25.92 120.702 27 117.318 27H109.218V1.872ZM116.958 22.752C118.566 22.752 119.742 22.236 120.486 21.204C121.23 20.172 121.602 18.672 121.602 16.704V12.132C121.602 10.188 121.23 8.7 120.486 7.668C119.742 6.636 118.566 6.12 116.958 6.12H114.546V22.752H116.958ZM139.804 27.432C136.684 27.432 134.32 26.568 132.712 24.84C131.104 23.112 130.3 20.76 130.3 17.784C130.3 16.272 130.504 14.916 130.912 13.716C131.344 12.492 131.944 11.46 132.712 10.62C133.504 9.756 134.452 9.108 135.556 8.676C136.684 8.22 137.944 7.992 139.336 7.992C140.728 7.992 141.976 8.22 143.08 8.676C144.184 9.108 145.12 9.732 145.888 10.548C146.656 11.364 147.244 12.36 147.652 13.536C148.084 14.688 148.3 15.984 148.3 17.424V19.008H135.592V19.332C135.592 20.532 135.964 21.504 136.708 22.248C137.452 22.968 138.544 23.328 139.984 23.328C141.088 23.328 142.036 23.124 142.828 22.716C143.62 22.284 144.304 21.72 144.88 21.024L147.76 24.156C147.04 25.044 146.032 25.812 144.736 26.46C143.44 27.108 141.796 27.432 139.804 27.432ZM139.372 11.808C138.22 11.808 137.296 12.168 136.6 12.888C135.928 13.584 135.592 14.532 135.592 15.732V16.02H143.08V15.732C143.08 14.508 142.744 13.548 142.072 12.852C141.424 12.156 140.524 11.808 139.372 11.808ZM152.426 27V8.424H157.754V11.808H157.97C158.186 11.28 158.45 10.788 158.762 10.332C159.074 9.876 159.446 9.48 159.878 9.144C160.334 8.784 160.85 8.508 161.426 8.316C162.026 8.1 162.698 7.992 163.442 7.992C164.33 7.992 165.146 8.148 165.89 8.46C166.634 8.748 167.27 9.192 167.798 9.792C168.326 10.392 168.734 11.124 169.022 11.988C169.334 12.852 169.49 13.848 169.49 14.976V27H164.162V15.696C164.162 13.296 163.118 12.096 161.03 12.096C160.622 12.096 160.214 12.156 159.806 12.276C159.422 12.372 159.074 12.54 158.762 12.78C158.45 12.996 158.198 13.272 158.006 13.608C157.838 13.944 157.754 14.34 157.754 14.796V27H152.426ZM174.012 27V8.424H179.34V11.808H179.556C179.772 11.28 180.036 10.788 180.348 10.332C180.66 9.876 181.032 9.48 181.464 9.144C181.92 8.784 182.436 8.508 183.012 8.316C183.612 8.1 184.284 7.992 185.028 7.992C185.916 7.992 186.732 8.148 187.476 8.46C188.22 8.748 188.856 9.192 189.384 9.792C189.912 10.392 190.32 11.124 190.608 11.988C190.92 12.852 191.076 13.848 191.076 14.976V27H185.748V15.696C185.748 13.296 184.704 12.096 182.616 12.096C182.208 12.096 181.8 12.156 181.392 12.276C181.008 12.372 180.66 12.54 180.348 12.78C180.036 12.996 179.784 13.272 179.592 13.608C179.424 13.944 179.34 14.34 179.34 14.796V27H174.012ZM204.562 27.432C201.442 27.432 199.078 26.568 197.47 24.84C195.862 23.112 195.058 20.76 195.058 17.784C195.058 16.272 195.262 14.916 195.67 13.716C196.102 12.492 196.702 11.46 197.47 10.62C198.262 9.756 199.21 9.108 200.314 8.676C201.442 8.22 202.702 7.992 204.094 7.992C205.486 7.992 206.734 8.22 207.838 8.676C208.942 9.108 209.878 9.732 210.646 10.548C211.414 11.364 212.002 12.36 212.41 13.536C212.842 14.688 213.058 15.984 213.058 17.424V19.008H200.35V19.332C200.35 20.532 200.722 21.504 201.466 22.248C202.21 22.968 203.302 23.328 204.742 23.328C205.846 23.328 206.794 23.124 207.586 22.716C208.378 22.284 209.062 21.72 209.638 21.024L212.518 24.156C211.798 25.044 210.79 25.812 209.494 26.46C208.198 27.108 206.554 27.432 204.562 27.432ZM204.13 11.808C202.978 11.808 202.054 12.168 201.358 12.888C200.686 13.584 200.35 14.532 200.35 15.732V16.02H207.838V15.732C207.838 14.508 207.502 13.548 206.83 12.852C206.182 12.156 205.282 11.808 204.13 11.808ZM217.184 0.36H222.512V11.808H222.728C222.944 11.28 223.208 10.788 223.52 10.332C223.832 9.876 224.204 9.48 224.636 9.144C225.092 8.784 225.608 8.508 226.184 8.316C226.784 8.1 227.456 7.992 228.2 7.992C229.088 7.992 229.904 8.148 230.648 8.46C231.392 8.748 232.028 9.192 232.556 9.792C233.084 10.392 233.492 11.124 233.78 11.988C234.092 12.852 234.248 13.848 234.248 14.976V27H228.92V15.696C228.92 13.296 227.876 12.096 225.788 12.096C225.38 12.096 224.972 12.156 224.564 12.276C224.18 12.372 223.832 12.54 223.52 12.78C223.208 12.996 222.956 13.272 222.764 13.608C222.596 13.944 222.512 14.34 222.512 14.796V27H217.184V0.36ZM251.91 8.424H257.346L248.598 29.988C248.046 31.356 247.314 32.4 246.402 33.12C245.49 33.84 244.242 34.2 242.658 34.2H238.986V30.06H243.45L244.602 26.892L237.114 8.424H242.838L245.538 16.236L247.23 21.636H247.518L249.138 16.236L251.91 8.424Z" fill="#E2A52D"/>
</g>
<defs>
<filter id="filter0_i" x="0.352417" y="0.359985" width="256.993" height="37.84" filterUnits="userSpaceOnUse" color-interpolation-filters="sRGB">
<feFlood flood-opacity="0" result="BackgroundImageFix"/>
<feBlend mode="normal" in="SourceGraphic" in2="BackgroundImageFix" result="shape"/>
<feColorMatrix in="SourceAlpha" type="matrix" values="0 0 0 0 0 0 0 0 0 0 0 0 0 0 0 0 0 0 127 0" result="hardAlpha"/>
<feOffset dy="4"/>
<feGaussianBlur stdDeviation="2"/>
<feComposite in2="hardAlpha" operator="arithmetic" k2="-1" k3="1"/>
<feColorMatrix type="matrix" values="0 0 0 0 0 0 0 0 0 0 0 0 0 0 0 0 0 0 0.25 0"/>
<feBlend mode="normal" in2="shape" result="effect1_innerShadow"/>
</filter>
</defs>
</svg>
