<svg width="42" height="27" viewBox="0 0 42 27" fill="none" xmlns="http://www.w3.org/2000/svg">
<g filter="url(#filter0_i)">
<path d="M17.8101 0.872V18.98C17.8101 20.108 17.6061 21.14 17.1981 22.076C16.8141 22.988 16.2501 23.768 15.5061 24.416C14.7861 25.064 13.9101 25.568 12.8781 25.928C11.8461 26.264 10.6941 26.432 9.42206 26.432C6.85406 26.432 4.86206 25.796 3.44606 24.524C2.05406 23.228 1.16606 21.536 0.782063 19.448L5.89406 18.404C6.08606 19.484 6.44606 20.36 6.97406 21.032C7.52606 21.704 8.34206 22.04 9.42206 22.04C10.3341 22.04 11.0421 21.752 11.5461 21.176C12.0741 20.576 12.3381 19.664 12.3381 18.44V5.3H4.05806V0.872H17.8101ZM23.304 0.872H31.404C34.788 0.872 37.296 1.952 38.928 4.112C40.56 6.272 41.376 9.38 41.376 13.436C41.376 17.492 40.56 20.6 38.928 22.76C37.296 24.92 34.788 26 31.404 26H23.304V0.872ZM31.044 21.752C32.652 21.752 33.828 21.236 34.572 20.204C35.316 19.172 35.688 17.672 35.688 15.704V11.132C35.688 9.188 35.316 7.7 34.572 6.668C33.828 5.636 32.652 5.12 31.044 5.12H28.632V21.752H31.044Z" fill="#E2A52D"/>
</g>
<defs>
<filter id="filter0_i" x="0.782043" y="0.872009" width="40.5939" height="29.56" filterUnits="userSpaceOnUse" color-interpolation-filters="sRGB">
<feFlood flood-opacity="0" result="BackgroundImageFix"/>
<feBlend mode="normal" in="SourceGraphic" in2="BackgroundImageFix" result="shape"/>
<feColorMatrix in="SourceAlpha" type="matrix" values="0 0 0 0 0 0 0 0 0 0 0 0 0 0 0 0 0 0 127 0" result="hardAlpha"/>
<feOffset dy="4"/>
<feGaussianBlur stdDeviation="2"/>
<feComposite in2="hardAlpha" operator="arithmetic" k2="-1" k3="1"/>
<feColorMatrix type="matrix" values="0 0 0 0 0 0 0 0 0 0 0 0 0 0 0 0 0 0 0.25 0"/>
<feBlend mode="normal" in2="shape" result="effect1_innerShadow"/>
</filter>
</defs>
</svg>
