<svg width="194" height="28" viewBox="0 0 194 28" fill="none" xmlns="http://www.w3.org/2000/svg">
<g filter="url(#filter0_i)">
<path d="M17.7593 1.872V19.98C17.7593 21.108 17.5553 22.14 17.1473 23.076C16.7633 23.988 16.1993 24.768 15.4553 25.416C14.7353 26.064 13.8593 26.568 12.8273 26.928C11.7953 27.264 10.6433 27.432 9.37128 27.432C6.80328 27.432 4.81128 26.796 3.39528 25.524C2.00328 24.228 1.11528 22.536 0.731281 20.448L5.84328 19.404C6.03528 20.484 6.39528 21.36 6.92328 22.032C7.47528 22.704 8.29128 23.04 9.37128 23.04C10.2833 23.04 10.9913 22.752 11.4953 22.176C12.0233 21.576 12.2873 20.664 12.2873 19.44V6.3H4.00728V1.872H17.7593ZM23.2532 1.872H31.3532C34.7372 1.872 37.2452 2.952 38.8772 5.112C40.5092 7.272 41.3252 10.38 41.3252 14.436C41.3252 18.492 40.5092 21.6 38.8772 23.76C37.2452 25.92 34.7372 27 31.3532 27H23.2532V1.872ZM30.9932 22.752C32.6012 22.752 33.7772 22.236 34.5212 21.204C35.2652 20.172 35.6372 18.672 35.6372 16.704V12.132C35.6372 10.188 35.2652 8.7 34.5212 7.668C33.7772 6.636 32.6012 6.12 30.9932 6.12H28.5812V22.752H30.9932ZM54.7752 27C52.8552 27 51.4272 26.496 50.4912 25.488C49.5552 24.48 49.0872 23.196 49.0872 21.636V12.564H44.0472V8.424H47.3232C48.1152 8.424 48.6792 8.268 49.0152 7.956C49.3512 7.644 49.5192 7.068 49.5192 6.228V1.872H54.4152V8.424H61.6512V12.564H54.4152V22.86H61.6512V27H54.7752ZM66.4611 0.36H71.7891V11.808H72.0051C72.2211 11.28 72.4851 10.788 72.7971 10.332C73.1091 9.876 73.4811 9.48 73.9131 9.144C74.3691 8.784 74.8851 8.508 75.4611 8.316C76.0611 8.1 76.7331 7.992 77.4771 7.992C78.3651 7.992 79.1811 8.148 79.9251 8.46C80.6691 8.748 81.3051 9.192 81.8331 9.792C82.3611 10.392 82.7691 11.124 83.0571 11.988C83.3691 12.852 83.5251 13.848 83.5251 14.976V27H78.1971V15.696C78.1971 13.296 77.1531 12.096 75.0651 12.096C74.6571 12.096 74.2491 12.156 73.8411 12.276C73.4571 12.372 73.1091 12.54 72.7971 12.78C72.4851 12.996 72.2331 13.272 72.0411 13.608C71.8731 13.944 71.7891 14.34 71.7891 14.796V27H66.4611V0.36ZM97.011 27.432C93.891 27.432 91.527 26.568 89.919 24.84C88.311 23.112 87.507 20.76 87.507 17.784C87.507 16.272 87.711 14.916 88.119 13.716C88.551 12.492 89.151 11.46 89.919 10.62C90.711 9.756 91.659 9.108 92.763 8.676C93.891 8.22 95.151 7.992 96.543 7.992C97.935 7.992 99.183 8.22 100.287 8.676C101.391 9.108 102.327 9.732 103.095 10.548C103.863 11.364 104.451 12.36 104.859 13.536C105.291 14.688 105.507 15.984 105.507 17.424V19.008H92.799V19.332C92.799 20.532 93.171 21.504 93.915 22.248C94.659 22.968 95.751 23.328 97.191 23.328C98.295 23.328 99.243 23.124 100.035 22.716C100.827 22.284 101.511 21.72 102.087 21.024L104.967 24.156C104.247 25.044 103.239 25.812 101.943 26.46C100.647 27.108 99.003 27.432 97.011 27.432ZM96.579 11.808C95.427 11.808 94.503 12.168 93.807 12.888C93.135 13.584 92.799 14.532 92.799 15.732V16.02H100.287V15.732C100.287 14.508 99.951 13.548 99.279 12.852C98.631 12.156 97.731 11.808 96.579 11.808ZM122.089 23.436H121.765C121.549 23.964 121.285 24.468 120.973 24.948C120.661 25.428 120.277 25.86 119.821 26.244C119.365 26.604 118.825 26.892 118.201 27.108C117.601 27.324 116.917 27.432 116.149 27.432C114.925 27.432 113.833 27.144 112.873 26.568C111.937 25.992 111.145 25.152 110.497 24.048C109.849 22.944 109.357 21.6 109.021 20.016C108.709 18.432 108.553 16.644 108.553 14.652C108.553 10.38 109.333 7.116 110.893 4.86C112.453 2.58 114.865 1.44 118.129 1.44C119.425 1.44 120.565 1.62 121.549 1.98C122.533 2.316 123.373 2.808 124.069 3.456C124.789 4.08 125.377 4.836 125.833 5.724C126.289 6.612 126.649 7.596 126.913 8.676L121.873 9.9C121.729 9.372 121.561 8.868 121.369 8.388C121.201 7.884 120.973 7.44 120.685 7.056C120.397 6.672 120.037 6.372 119.605 6.156C119.173 5.916 118.645 5.796 118.021 5.796C116.653 5.796 115.681 6.36 115.105 7.488C114.553 8.616 114.277 10.2 114.277 12.24V16.344C114.277 18.384 114.577 20.016 115.177 21.24C115.801 22.464 116.893 23.076 118.453 23.076C119.677 23.076 120.589 22.716 121.189 21.996C121.789 21.276 122.089 20.352 122.089 19.224V17.388H117.805V13.572H126.913V27H122.089V23.436ZM140.183 27.432C137.063 27.432 134.699 26.568 133.091 24.84C131.483 23.112 130.679 20.76 130.679 17.784C130.679 16.272 130.883 14.916 131.291 13.716C131.723 12.492 132.323 11.46 133.091 10.62C133.883 9.756 134.831 9.108 135.935 8.676C137.063 8.22 138.323 7.992 139.715 7.992C141.107 7.992 142.355 8.22 143.459 8.676C144.563 9.108 145.499 9.732 146.267 10.548C147.035 11.364 147.623 12.36 148.031 13.536C148.463 14.688 148.679 15.984 148.679 17.424V19.008H135.971V19.332C135.971 20.532 136.343 21.504 137.087 22.248C137.831 22.968 138.923 23.328 140.363 23.328C141.467 23.328 142.415 23.124 143.207 22.716C143.999 22.284 144.683 21.72 145.259 21.024L148.139 24.156C147.419 25.044 146.411 25.812 145.115 26.46C143.819 27.108 142.175 27.432 140.183 27.432ZM139.751 11.808C138.599 11.808 137.675 12.168 136.979 12.888C136.307 13.584 135.971 14.532 135.971 15.732V16.02H143.459V15.732C143.459 14.508 143.123 13.548 142.451 12.852C141.803 12.156 140.903 11.808 139.751 11.808ZM161.769 27.432C158.649 27.432 156.285 26.568 154.677 24.84C153.069 23.112 152.265 20.76 152.265 17.784C152.265 16.272 152.469 14.916 152.877 13.716C153.309 12.492 153.909 11.46 154.677 10.62C155.469 9.756 156.417 9.108 157.521 8.676C158.649 8.22 159.909 7.992 161.301 7.992C162.693 7.992 163.941 8.22 165.045 8.676C166.149 9.108 167.085 9.732 167.853 10.548C168.621 11.364 169.209 12.36 169.617 13.536C170.049 14.688 170.265 15.984 170.265 17.424V19.008H157.557V19.332C157.557 20.532 157.929 21.504 158.673 22.248C159.417 22.968 160.509 23.328 161.949 23.328C163.053 23.328 164.001 23.124 164.793 22.716C165.585 22.284 166.269 21.72 166.845 21.024L169.725 24.156C169.005 25.044 167.997 25.812 166.701 26.46C165.405 27.108 163.761 27.432 161.769 27.432ZM161.337 11.808C160.185 11.808 159.261 12.168 158.565 12.888C157.893 13.584 157.557 14.532 157.557 15.732V16.02H165.045V15.732C165.045 14.508 164.709 13.548 164.037 12.852C163.389 12.156 162.489 11.808 161.337 11.808ZM174.391 0.36H179.719V15.48H179.971L182.455 12.564L186.343 8.424H192.463L185.263 15.768L193.219 27H186.883L181.483 18.792L179.719 20.556V27H174.391V0.36Z" fill="#E2A52D"/>
</g>
<defs>
<filter id="filter0_i" x="0.731262" y="0.359985" width="192.488" height="31.072" filterUnits="userSpaceOnUse" color-interpolation-filters="sRGB">
<feFlood flood-opacity="0" result="BackgroundImageFix"/>
<feBlend mode="normal" in="SourceGraphic" in2="BackgroundImageFix" result="shape"/>
<feColorMatrix in="SourceAlpha" type="matrix" values="0 0 0 0 0 0 0 0 0 0 0 0 0 0 0 0 0 0 127 0" result="hardAlpha"/>
<feOffset dy="4"/>
<feGaussianBlur stdDeviation="2"/>
<feComposite in2="hardAlpha" operator="arithmetic" k2="-1" k3="1"/>
<feColorMatrix type="matrix" values="0 0 0 0 0 0 0 0 0 0 0 0 0 0 0 0 0 0 0.25 0"/>
<feBlend mode="normal" in2="shape" result="effect1_innerShadow"/>
</filter>
</defs>
</svg>
